<svg width="24" height="24" viewBox="0 0 24 24" fill="none" xmlns="http://www.w3.org/2000/svg">
<path d="M21.6304 16.4508H7.67339L8.37417 15.0234L20.0179 15.0023C20.4117 15.0023 20.7492 14.7211 20.8195 14.332L22.432 5.30625C22.4742 5.06953 22.4109 4.82578 22.2562 4.64062C22.1797 4.5495 22.0844 4.4761 21.9767 4.42551C21.8691 4.37492 21.7517 4.34835 21.6328 4.34766L6.82026 4.29844L6.6937 3.70312C6.61401 3.32344 6.27183 3.04688 5.88276 3.04688H2.26167C2.04224 3.04688 1.83181 3.13404 1.67665 3.2892C1.52149 3.44436 1.43433 3.65479 1.43433 3.87422C1.43433 4.09364 1.52149 4.30408 1.67665 4.45924C1.83181 4.6144 2.04224 4.70156 2.26167 4.70156H5.21245L5.76558 7.33125L7.12729 13.9242L5.37417 16.7859C5.28313 16.9088 5.22829 17.0547 5.21587 17.2071C5.20344 17.3596 5.23392 17.5124 5.30386 17.6484C5.44448 17.9273 5.72808 18.1031 6.04214 18.1031H7.51401C7.20023 18.5199 7.03074 19.0275 7.0312 19.5492C7.0312 20.8758 8.10933 21.9539 9.43589 21.9539C10.7625 21.9539 11.8406 20.8758 11.8406 19.5492C11.8406 19.0266 11.6671 18.518 11.3578 18.1031H15.1335C14.8198 18.5199 14.6503 19.0275 14.6507 19.5492C14.6507 20.8758 15.7289 21.9539 17.0554 21.9539C18.382 21.9539 19.4601 20.8758 19.4601 19.5492C19.4601 19.0266 19.2867 18.518 18.9773 18.1031H21.6328C22.0874 18.1031 22.4601 17.7328 22.4601 17.2758C22.4587 17.0566 22.3707 16.8468 22.2153 16.6923C22.0599 16.5377 21.8496 16.4509 21.6304 16.4508V16.4508ZM7.16479 5.92969L20.6601 5.97422L19.3382 13.3758L8.73745 13.3945L7.16479 5.92969ZM9.43589 20.2898C9.02808 20.2898 8.69526 19.957 8.69526 19.5492C8.69526 19.1414 9.02808 18.8086 9.43589 18.8086C9.8437 18.8086 10.1765 19.1414 10.1765 19.5492C10.1765 19.7456 10.0985 19.934 9.95959 20.0729C9.82069 20.2118 9.63231 20.2898 9.43589 20.2898V20.2898ZM17.0554 20.2898C16.6476 20.2898 16.3148 19.957 16.3148 19.5492C16.3148 19.1414 16.6476 18.8086 17.0554 18.8086C17.4632 18.8086 17.796 19.1414 17.796 19.5492C17.796 19.7456 17.718 19.934 17.5791 20.0729C17.4402 20.2118 17.2518 20.2898 17.0554 20.2898V20.2898Z" fill="white"/>
</svg>
