<svg width="43" height="44" viewBox="0 0 43 44" fill="none" xmlns="http://www.w3.org/2000/svg">
<path d="M34.4546 8.8502C32.735 7.1136 30.6892 5.73388 28.4348 4.7903C26.1804 3.84672 23.7617 3.35788 21.3178 3.35186C18.8739 3.34585 16.4529 3.82277 14.1938 4.75525C11.9348 5.68772 9.88224 7.05735 8.15412 8.78547C6.426 10.5136 5.05637 12.5661 4.1239 14.8252C3.19143 17.0842 2.7145 19.5052 2.72052 21.9491C2.72653 24.3931 3.21537 26.8117 4.15895 29.0661C5.10253 31.3206 6.48225 33.3663 8.21885 35.0859C9.93844 36.8225 11.9842 38.2022 14.2386 39.1458C16.4931 40.0894 18.9117 40.5782 21.3556 40.5843C23.7995 40.5903 26.2206 40.1133 28.4796 39.1809C30.7387 38.2484 32.7912 36.8788 34.5193 35.1507C36.2474 33.4225 37.6171 31.37 38.5495 29.111C39.482 26.8519 39.9589 24.4309 39.9529 21.987C39.9469 19.5431 39.4581 17.1244 38.5145 14.87C37.5709 12.6156 36.1912 10.5698 34.4546 8.8502ZM16.047 22.3142C15.9767 21.2387 16.236 20.1673 16.7902 19.2429C17.3444 18.3185 18.1673 17.5851 19.1491 17.1404C20.1309 16.6956 21.2249 16.5608 22.2853 16.7538C23.3457 16.9468 24.3221 17.4584 25.0842 18.2206C25.8463 18.9827 26.358 19.9591 26.551 21.0195C26.744 22.0799 26.6091 23.1739 26.1644 24.1557C25.7197 25.1375 24.9862 25.9603 24.0618 26.5146C23.1374 27.0688 22.066 27.3281 20.9905 27.2578C19.7074 27.1727 18.4988 26.6245 17.5895 25.7152C16.6802 24.8059 16.1321 23.5974 16.047 22.3142ZM35.9238 16.7951L27.9424 17.2788C27.8878 17.2817 27.8333 17.2712 27.7837 17.2482C27.734 17.2253 27.6907 17.1906 27.6575 17.1471C27.2276 16.5838 26.7243 16.0805 26.161 15.6506C26.1175 15.6174 26.0828 15.5741 26.0599 15.5244C26.0369 15.4748 26.0264 15.4203 26.0293 15.3657L26.513 7.38429C26.5159 7.33227 26.5311 7.28168 26.5573 7.23663C26.5835 7.19158 26.6199 7.15335 26.6636 7.12502C26.7074 7.0967 26.7572 7.07909 26.809 7.07363C26.8608 7.06817 26.9132 7.07501 26.9619 7.09359C29.069 7.89623 30.9824 9.1356 32.5765 10.7303C34.1706 12.3249 35.4093 14.2388 36.2112 16.3462C36.2298 16.3949 36.2366 16.4473 36.2311 16.4991C36.2257 16.5509 36.2081 16.6007 36.1798 16.6445C36.1514 16.6882 36.1132 16.7246 36.0681 16.7508C36.0231 16.777 35.9725 16.7922 35.9205 16.7951H35.9238ZM16.1638 7.38429L16.6474 15.3657C16.6503 15.4203 16.6398 15.4748 16.6169 15.5244C16.5939 15.5741 16.5592 15.6174 16.5158 15.6506C15.9524 16.0805 15.4491 16.5838 15.0192 17.1471C14.986 17.1906 14.9427 17.2253 14.8931 17.2482C14.8434 17.2712 14.7889 17.2817 14.7343 17.2788L6.75294 16.7951C6.70092 16.7922 6.65033 16.777 6.60528 16.7508C6.56023 16.7246 6.522 16.6882 6.49368 16.6445C6.46535 16.6007 6.44775 16.5509 6.44228 16.4991C6.43682 16.4473 6.44366 16.3949 6.46224 16.3462C7.26449 14.2385 8.50368 12.3244 10.0984 10.7297C11.6931 9.13503 13.6072 7.89584 15.7149 7.09359C15.7636 7.07501 15.8159 7.06817 15.8678 7.07363C15.9196 7.07909 15.9694 7.0967 16.0131 7.12502C16.0568 7.15335 16.0933 7.19158 16.1195 7.23663C16.1456 7.28168 16.1608 7.33227 16.1638 7.38429ZM6.75294 27.141L14.7343 26.6573C14.7889 26.6545 14.8434 26.6649 14.8931 26.6879C14.9427 26.7108 14.986 26.7455 15.0192 26.789C15.4491 27.3523 15.9524 27.8556 16.5158 28.2856C16.5592 28.3188 16.5939 28.3621 16.6169 28.4117C16.6398 28.4614 16.6503 28.5159 16.6474 28.5705L16.1638 36.5518C16.1608 36.6039 16.1456 36.6544 16.1195 36.6995C16.0933 36.7445 16.0568 36.7828 16.0131 36.8111C15.9694 36.8394 15.9196 36.857 15.8678 36.8625C15.8159 36.868 15.7636 36.8611 15.7149 36.8425C13.6072 36.0403 11.6931 34.8011 10.0984 33.2064C8.50368 31.6117 7.26449 29.6976 6.46224 27.5899C6.44366 27.5412 6.43682 27.4888 6.44228 27.437C6.44775 27.3852 6.46535 27.3354 6.49368 27.2917C6.522 27.2479 6.56023 27.2115 6.60528 27.1853C6.65033 27.1591 6.70092 27.144 6.75294 27.141ZM26.5097 36.5518L26.026 28.5705C26.0231 28.5159 26.0336 28.4614 26.0565 28.4117C26.0795 28.3621 26.1142 28.3188 26.1577 28.2856C26.721 27.8556 27.2243 27.3523 27.6542 26.789C27.6874 26.7455 27.7307 26.7108 27.7804 26.6879C27.83 26.6649 27.8845 26.6545 27.9391 26.6573L35.9205 27.141C35.9725 27.144 36.0231 27.1591 36.0681 27.1853C36.1132 27.2115 36.1514 27.2479 36.1798 27.2917C36.2081 27.3354 36.2257 27.3852 36.2311 27.437C36.2366 27.4888 36.2298 27.5412 36.2112 27.5899C35.4089 29.6976 34.1697 31.6117 32.575 33.2064C30.9804 34.8011 29.0663 36.0403 26.9585 36.8425C26.9099 36.8611 26.8575 36.868 26.8057 36.8625C26.7539 36.857 26.7041 36.8394 26.6603 36.8111C26.6166 36.7828 26.5802 36.7445 26.554 36.6995C26.5278 36.6544 26.5126 36.6039 26.5097 36.5518Z" fill="white"/>
</svg>
