<svg width="195" height="45" viewBox="0 0 195 45" fill="none" xmlns="http://www.w3.org/2000/svg">
<path d="M3.2017 21V2.81818H5.40341V10.9148H15.098V2.81818H17.2997V21H15.098V12.8679H5.40341V21H3.2017ZM25.4363 21.3196C24.5721 21.3196 23.7879 21.1568 23.0836 20.8313C22.3793 20.4999 21.82 20.0234 21.4057 19.402C20.9914 18.7746 20.7843 18.017 20.7843 17.1293C20.7843 16.348 20.9382 15.7147 21.2459 15.2294C21.5537 14.7382 21.965 14.3535 22.4799 14.0753C22.9949 13.7971 23.563 13.59 24.1845 13.4538C24.8118 13.3118 25.4422 13.1993 26.0755 13.1165C26.9041 13.0099 27.5758 12.93 28.0907 12.8768C28.6116 12.8176 28.9904 12.7199 29.2271 12.5838C29.4698 12.4477 29.5911 12.2109 29.5911 11.8736V11.8026C29.5911 10.9266 29.3514 10.246 28.872 9.76065C28.3985 9.27533 27.6794 9.03267 26.7147 9.03267C25.7144 9.03267 24.9302 9.25166 24.362 9.68963C23.7939 10.1276 23.3944 10.5952 23.1635 11.0923L21.1749 10.3821C21.53 9.5535 22.0035 8.90838 22.5953 8.44673C23.1931 7.97917 23.8442 7.65365 24.5485 7.47017C25.2587 7.28078 25.9571 7.18608 26.6436 7.18608C27.0816 7.18608 27.5847 7.23935 28.1529 7.34588C28.727 7.4465 29.2804 7.6566 29.813 7.97621C30.3516 8.29581 30.7985 8.77817 31.1536 9.4233C31.5087 10.0684 31.6863 10.9325 31.6863 12.0156V21H29.5911V19.1534H29.4846C29.3425 19.4493 29.1058 19.766 28.7743 20.1033C28.4429 20.4407 28.002 20.7277 27.4515 20.9645C26.9011 21.2012 26.2293 21.3196 25.4363 21.3196ZM25.7559 19.4375C26.5845 19.4375 27.2828 19.2747 27.851 18.9492C28.4251 18.6237 28.8572 18.2035 29.1472 17.6886C29.4431 17.1737 29.5911 16.6321 29.5911 16.0639V14.1463C29.5023 14.2528 29.307 14.3505 29.0051 14.4393C28.7092 14.5221 28.3659 14.5961 27.9753 14.6612C27.5906 14.7204 27.2148 14.7737 26.8478 14.821C26.4868 14.8625 26.1938 14.898 25.9689 14.9276C25.4244 14.9986 24.9154 15.114 24.4419 15.2738C23.9744 15.4277 23.5956 15.6615 23.3056 15.9751C23.0215 16.2829 22.8794 16.7031 22.8794 17.2358C22.8794 17.9638 23.1487 18.5142 23.6873 18.8871C24.2318 19.254 24.9213 19.4375 25.7559 19.4375ZM35.5104 7.36364H37.6056V19.0469H42.7547V7.36364H44.8499V19.0469H49.999V7.36364H52.0942V21H35.5104V7.36364ZM163.997 21.2308C163.411 21.2308 162.908 21.0237 162.488 20.6094C162.074 20.1892 161.866 19.6861 161.866 19.1001C161.866 18.5201 162.074 18.023 162.488 17.6087C162.908 17.1944 163.411 16.9872 163.997 16.9872C164.565 16.9872 165.063 17.1944 165.489 17.6087C165.915 18.023 166.128 18.5201 166.128 19.1001C166.128 19.4908 166.027 19.8488 165.826 20.1744C165.631 20.494 165.373 20.7514 165.054 20.9467C164.734 21.1361 164.382 21.2308 163.997 21.2308ZM169.233 21V7.36364H172.899V9.7429H173.041C173.29 8.89654 173.707 8.25734 174.293 7.82528C174.879 7.38731 175.554 7.16832 176.317 7.16832C176.507 7.16832 176.711 7.18016 176.93 7.20383C177.149 7.22751 177.341 7.26006 177.507 7.30149V10.6573C177.329 10.604 177.084 10.5567 176.77 10.5153C176.456 10.4738 176.169 10.4531 175.909 10.4531C175.353 10.4531 174.855 10.5745 174.418 10.8171C173.985 11.0539 173.642 11.3853 173.388 11.8114C173.139 12.2376 173.015 12.7288 173.015 13.2852V21H169.233ZM188.207 15.1939V7.36364H191.989V21H188.358V18.5231H188.216C187.908 19.3221 187.396 19.9643 186.68 20.4496C185.97 20.9349 185.103 21.1776 184.079 21.1776C183.167 21.1776 182.365 20.9704 181.673 20.5561C180.98 20.1418 180.439 19.5529 180.048 18.7894C179.664 18.0259 179.468 17.1115 179.462 16.0462V7.36364H183.244V15.3714C183.25 16.1764 183.466 16.8126 183.892 17.2802C184.319 17.7478 184.89 17.9815 185.606 17.9815C186.062 17.9815 186.488 17.878 186.884 17.6708C187.281 17.4577 187.6 17.1441 187.843 16.7298C188.092 16.3155 188.213 15.8035 188.207 15.1939Z" fill="black"/>
<path d="M55.5832 2.81818H60.324L65.3311 15.0341H65.5441L70.5512 2.81818H75.292V21H71.5633V9.16584H71.4124L66.7071 20.9112H64.1681L59.4628 9.12145H59.3119V21H55.5832V2.81818ZM82.2766 21.2575C81.4066 21.2575 80.6313 21.1065 79.9506 20.8047C79.27 20.4969 78.7314 20.0442 78.3349 19.4464C77.9442 18.8427 77.7489 18.091 77.7489 17.1914C77.7489 16.4338 77.888 15.7976 78.1662 15.2827C78.4444 14.7678 78.8232 14.3535 79.3026 14.0398C79.782 13.7261 80.3265 13.4893 80.9361 13.3295C81.5516 13.1697 82.1967 13.0573 82.8714 12.9922C83.6645 12.9093 84.3037 12.8324 84.7891 12.7614C85.2744 12.6844 85.6265 12.572 85.8455 12.424C86.0645 12.276 86.174 12.0571 86.174 11.767V11.7138C86.174 11.1515 85.9964 10.7165 85.6413 10.4087C85.2921 10.101 84.795 9.94709 84.1499 9.94709C83.4692 9.94709 82.9277 10.098 82.5252 10.3999C82.1228 10.6958 81.8564 11.0687 81.7262 11.5185L78.2283 11.2344C78.4059 10.4058 78.7551 9.68963 79.2759 9.08594C79.7968 8.47633 80.4685 8.00876 81.2912 7.68324C82.1198 7.3518 83.0786 7.18608 84.1676 7.18608C84.9252 7.18608 85.6502 7.27486 86.3427 7.45241C87.0411 7.62997 87.6596 7.90518 88.1982 8.27805C88.7427 8.65092 89.1718 9.13033 89.4854 9.71626C89.7991 10.2963 89.956 10.9917 89.956 11.8026V21H86.3693V19.109H86.2628C86.0438 19.5352 85.7508 19.911 85.3839 20.2365C85.0169 20.5561 84.576 20.8076 84.0611 20.9911C83.5462 21.1687 82.9513 21.2575 82.2766 21.2575ZM83.3597 18.6474C83.9161 18.6474 84.4073 18.5379 84.8335 18.3189C85.2596 18.094 85.594 17.7921 85.8366 17.4134C86.0793 17.0346 86.2006 16.6055 86.2006 16.1261V14.679C86.0823 14.7559 85.9195 14.8269 85.7124 14.892C85.5111 14.9512 85.2833 15.0075 85.0288 15.0607C84.7743 15.1081 84.5198 15.1525 84.2653 15.1939C84.0108 15.2294 83.7799 15.262 83.5728 15.2915C83.1289 15.3567 82.7412 15.4602 82.4098 15.6023C82.0784 15.7443 81.8209 15.9367 81.6374 16.1793C81.454 16.4161 81.3622 16.712 81.3622 17.0671C81.3622 17.582 81.5487 17.9756 81.9215 18.2479C82.3003 18.5142 82.7797 18.6474 83.3597 18.6474ZM102.23 7.36364V10.3377H96.5655V21H92.8901V7.36364H102.23ZM107.936 21.2575C107.066 21.2575 106.29 21.1065 105.61 20.8047C104.929 20.4969 104.391 20.0442 103.994 19.4464C103.603 18.8427 103.408 18.091 103.408 17.1914C103.408 16.4338 103.547 15.7976 103.825 15.2827C104.104 14.7678 104.482 14.3535 104.962 14.0398C105.441 13.7261 105.986 13.4893 106.595 13.3295C107.211 13.1697 107.856 13.0573 108.531 12.9922C109.324 12.9093 109.963 12.8324 110.448 12.7614C110.934 12.6844 111.286 12.572 111.505 12.424C111.724 12.276 111.833 12.0571 111.833 11.767V11.7138C111.833 11.1515 111.656 10.7165 111.301 10.4087C110.951 10.101 110.454 9.94709 109.809 9.94709C109.128 9.94709 108.587 10.098 108.184 10.3999C107.782 10.6958 107.516 11.0687 107.385 11.5185L103.888 11.2344C104.065 10.4058 104.414 9.68963 104.935 9.08594C105.456 8.47633 106.128 8.00876 106.95 7.68324C107.779 7.3518 108.738 7.18608 109.827 7.18608C110.584 7.18608 111.309 7.27486 112.002 7.45241C112.7 7.62997 113.319 7.90518 113.857 8.27805C114.402 8.65092 114.831 9.13033 115.145 9.71626C115.458 10.2963 115.615 10.9917 115.615 11.8026V21H112.028V19.109H111.922C111.703 19.5352 111.41 19.911 111.043 20.2365C110.676 20.5561 110.235 20.8076 109.72 20.9911C109.205 21.1687 108.611 21.2575 107.936 21.2575ZM109.019 18.6474C109.575 18.6474 110.066 18.5379 110.493 18.3189C110.919 18.094 111.253 17.7921 111.496 17.4134C111.738 17.0346 111.86 16.6055 111.86 16.1261V14.679C111.741 14.7559 111.579 14.8269 111.372 14.892C111.17 14.9512 110.942 15.0075 110.688 15.0607C110.433 15.1081 110.179 15.1525 109.924 15.1939C109.67 15.2294 109.439 15.262 109.232 15.2915C108.788 15.3567 108.4 15.4602 108.069 15.6023C107.738 15.7443 107.48 15.9367 107.297 16.1793C107.113 16.4161 107.021 16.712 107.021 17.0671C107.021 17.582 107.208 17.9756 107.581 18.2479C107.959 18.5142 108.439 18.6474 109.019 18.6474ZM117.848 17.1381H121.514C121.532 17.5879 121.733 17.9431 122.118 18.2035C122.503 18.4639 123 18.5941 123.61 18.5941C124.225 18.5941 124.743 18.4521 125.163 18.168C125.583 17.878 125.794 17.4637 125.794 16.9251C125.794 16.5936 125.711 16.3066 125.545 16.0639C125.379 15.8153 125.148 15.62 124.853 15.478C124.557 15.3359 124.213 15.2649 123.823 15.2649H121.861V12.788H123.823C124.409 12.788 124.858 12.6519 125.172 12.3796C125.492 12.1074 125.652 11.767 125.652 11.3587C125.652 10.897 125.486 10.5271 125.154 10.2489C124.829 9.96484 124.388 9.8228 123.832 9.8228C123.269 9.8228 122.802 9.95005 122.429 10.2045C122.062 10.4531 121.873 10.7786 121.861 11.1811H118.212C118.224 10.3643 118.469 9.65708 118.949 9.0593C119.434 8.46153 120.085 7.99988 120.902 7.67436C121.725 7.34884 122.645 7.18608 123.663 7.18608C124.776 7.18608 125.734 7.34292 126.539 7.6566C127.35 7.96437 127.972 8.4053 128.404 8.9794C128.842 9.5535 129.061 10.2371 129.061 11.0302C129.061 11.7522 128.824 12.3559 128.35 12.8413C127.877 13.3266 127.214 13.6728 126.362 13.88V14.022C126.924 14.0575 127.433 14.2085 127.889 14.4748C128.344 14.7411 128.708 15.1081 128.981 15.5756C129.253 16.0373 129.389 16.5848 129.389 17.218C129.389 18.0644 129.141 18.7894 128.643 19.3931C128.152 19.9968 127.472 20.4614 126.601 20.7869C125.737 21.1065 124.746 21.2663 123.627 21.2663C122.538 21.2663 121.562 21.1095 120.698 20.7958C119.84 20.4762 119.156 20.0086 118.647 19.3931C118.144 18.7776 117.878 18.0259 117.848 17.1381ZM135.322 16.0107L140.231 7.36364H143.96V21H140.355V12.3263L135.464 21H131.708V7.36364H135.322V16.0107ZM156.482 12.6726V15.6467H149.362V12.6726H156.482ZM150.605 7.36364V21H146.992V7.36364H150.605ZM158.852 7.36364V21H155.266V7.36364H158.852Z" fill="#3182CE"/>
<path d="M8.42045 37.6364C8.42045 38.5568 8.25426 39.3523 7.92188 40.0227C7.58949 40.6932 7.13352 41.2102 6.55398 41.5739C5.97443 41.9375 5.3125 42.1193 4.56818 42.1193C3.82386 42.1193 3.16193 41.9375 2.58239 41.5739C2.00284 41.2102 1.54688 40.6932 1.21449 40.0227C0.882102 39.3523 0.715909 38.5568 0.715909 37.6364C0.715909 36.7159 0.882102 35.9205 1.21449 35.25C1.54688 34.5795 2.00284 34.0625 2.58239 33.6989C3.16193 33.3352 3.82386 33.1534 4.56818 33.1534C5.3125 33.1534 5.97443 33.3352 6.55398 33.6989C7.13352 34.0625 7.58949 34.5795 7.92188 35.25C8.25426 35.9205 8.42045 36.7159 8.42045 37.6364ZM7.39773 37.6364C7.39773 36.8807 7.27131 36.2429 7.01847 35.723C6.76847 35.2031 6.42898 34.8097 6 34.5426C5.57386 34.2756 5.09659 34.142 4.56818 34.142C4.03977 34.142 3.56108 34.2756 3.1321 34.5426C2.70597 34.8097 2.36648 35.2031 2.11364 35.723C1.86364 36.2429 1.73864 36.8807 1.73864 37.6364C1.73864 38.392 1.86364 39.0298 2.11364 39.5497C2.36648 40.0696 2.70597 40.4631 3.1321 40.7301C3.56108 40.9972 4.03977 41.1307 4.56818 41.1307C5.09659 41.1307 5.57386 40.9972 6 40.7301C6.42898 40.4631 6.76847 40.0696 7.01847 39.5497C7.27131 39.0298 7.39773 38.392 7.39773 37.6364ZM9.68608 36.392V35.4545H15.0043V36.392H12.8565V42H11.8509V36.392H9.68608ZM18.8757 42.1364C18.245 42.1364 17.701 41.9972 17.2436 41.7188C16.7891 41.4375 16.4382 41.0455 16.1911 40.5426C15.9467 40.0369 15.8246 39.4489 15.8246 38.7784C15.8246 38.108 15.9467 37.517 16.1911 37.0057C16.4382 36.4915 16.782 36.0909 17.2223 35.804C17.6655 35.5142 18.1825 35.3693 18.7734 35.3693C19.1143 35.3693 19.451 35.4261 19.7834 35.5398C20.1158 35.6534 20.4183 35.8381 20.6911 36.0938C20.9638 36.3466 21.1811 36.6818 21.343 37.0994C21.505 37.517 21.5859 38.0312 21.5859 38.642V39.0682H16.5405V38.1989H20.5632C20.5632 37.8295 20.4893 37.5 20.3416 37.2102C20.1967 36.9205 19.9893 36.6918 19.7195 36.5241C19.4524 36.3565 19.1371 36.2727 18.7734 36.2727C18.3729 36.2727 18.0263 36.3722 17.7337 36.571C17.4439 36.767 17.2209 37.0227 17.0646 37.3381C16.9084 37.6534 16.8303 37.9915 16.8303 38.3523V38.9318C16.8303 39.4261 16.9155 39.8452 17.0859 40.1889C17.2592 40.5298 17.4993 40.7898 17.8061 40.9688C18.1129 41.1449 18.4695 41.233 18.8757 41.233C19.1399 41.233 19.3786 41.196 19.5916 41.1222C19.8075 41.0455 19.9936 40.9318 20.1499 40.7812C20.3061 40.6278 20.4268 40.4375 20.5121 40.2102L21.4837 40.483C21.3814 40.8125 21.2095 41.1023 20.968 41.3523C20.7266 41.5994 20.4283 41.7926 20.0732 41.9318C19.718 42.0682 19.3189 42.1364 18.8757 42.1364ZM28.1612 35.4545V42H27.1555V35.4545H28.1612ZM27.7692 38.5739V39.5114C27.5419 39.5966 27.3161 39.6719 27.0916 39.7372C26.8672 39.7997 26.6314 39.8494 26.3842 39.8864C26.1371 39.9205 25.8658 39.9375 25.5703 39.9375C24.8288 39.9375 24.2337 39.7372 23.7848 39.3366C23.3388 38.9361 23.1158 38.3352 23.1158 37.5341V35.4375H24.1214V37.5341C24.1214 37.8693 24.1854 38.1449 24.3132 38.3608C24.4411 38.5767 24.6143 38.7372 24.8331 38.8423C25.0518 38.9474 25.2976 39 25.5703 39C25.9964 39 26.3814 38.9616 26.7251 38.8849C27.0717 38.8054 27.4197 38.7017 27.7692 38.5739ZM32.7507 42.1364C32.12 42.1364 31.576 41.9972 31.1186 41.7188C30.6641 41.4375 30.3132 41.0455 30.0661 40.5426C29.8217 40.0369 29.6996 39.4489 29.6996 38.7784C29.6996 38.108 29.8217 37.517 30.0661 37.0057C30.3132 36.4915 30.657 36.0909 31.0973 35.804C31.5405 35.5142 32.0575 35.3693 32.6484 35.3693C32.9893 35.3693 33.326 35.4261 33.6584 35.5398C33.9908 35.6534 34.2933 35.8381 34.5661 36.0938C34.8388 36.3466 35.0561 36.6818 35.218 37.0994C35.38 37.517 35.4609 38.0312 35.4609 38.642V39.0682H30.4155V38.1989H34.4382C34.4382 37.8295 34.3643 37.5 34.2166 37.2102C34.0717 36.9205 33.8643 36.6918 33.5945 36.5241C33.3274 36.3565 33.0121 36.2727 32.6484 36.2727C32.2479 36.2727 31.9013 36.3722 31.6087 36.571C31.3189 36.767 31.0959 37.0227 30.9396 37.3381C30.7834 37.6534 30.7053 37.9915 30.7053 38.3523V38.9318C30.7053 39.4261 30.7905 39.8452 30.9609 40.1889C31.1342 40.5298 31.3743 40.7898 31.6811 40.9688C31.9879 41.1449 32.3445 41.233 32.7507 41.233C33.0149 41.233 33.2536 41.196 33.4666 41.1222C33.6825 41.0455 33.8686 40.9318 34.0249 40.7812C34.1811 40.6278 34.3018 40.4375 34.3871 40.2102L35.3587 40.483C35.2564 40.8125 35.0845 41.1023 34.843 41.3523C34.6016 41.5994 34.3033 41.7926 33.9482 41.9318C33.593 42.0682 33.1939 42.1364 32.7507 42.1364ZM39.6499 42.1364C39.0362 42.1364 38.5078 41.9915 38.0646 41.7017C37.6214 41.4119 37.2805 41.0128 37.0419 40.5043C36.8033 39.9957 36.6839 39.4148 36.6839 38.7614C36.6839 38.0966 36.8061 37.5099 37.0504 37.0014C37.2976 36.4901 37.6413 36.0909 38.0817 35.804C38.5249 35.5142 39.0419 35.3693 39.6328 35.3693C40.093 35.3693 40.5078 35.4545 40.8771 35.625C41.2464 35.7955 41.549 36.0341 41.7848 36.3409C42.0206 36.6477 42.1669 37.0057 42.2237 37.4148H41.218C41.1413 37.1165 40.9709 36.8523 40.7067 36.6222C40.4453 36.3892 40.093 36.2727 39.6499 36.2727C39.2578 36.2727 38.9141 36.375 38.6186 36.5795C38.326 36.7812 38.0973 37.0668 37.9325 37.4361C37.7706 37.8026 37.6896 38.233 37.6896 38.7273C37.6896 39.233 37.7692 39.6733 37.9283 40.0483C38.0902 40.4233 38.3175 40.7145 38.6101 40.9219C38.9055 41.1293 39.2521 41.233 39.6499 41.233C39.9112 41.233 40.1484 41.1875 40.3615 41.0966C40.5746 41.0057 40.755 40.875 40.9027 40.7045C41.0504 40.5341 41.1555 40.3295 41.218 40.0909H42.2237C42.1669 40.4773 42.0263 40.8253 41.8018 41.1349C41.5803 41.4418 41.2862 41.6861 40.9197 41.8679C40.5561 42.0469 40.1328 42.1364 39.6499 42.1364ZM43.1783 36.392V35.4545H48.4964V36.392H46.3487V42H45.343V36.392H43.1783ZM49.9634 42V35.4545H52.6396C53.3441 35.4545 53.9038 35.6136 54.3185 35.9318C54.7333 36.25 54.9407 36.6705 54.9407 37.1932C54.9407 37.5909 54.8228 37.8991 54.587 38.1179C54.3512 38.3338 54.0487 38.4801 53.6793 38.5568C53.9208 38.5909 54.1552 38.6761 54.3825 38.8125C54.6126 38.9489 54.8029 39.1364 54.9535 39.375C55.104 39.6108 55.1793 39.9006 55.1793 40.2443C55.1793 40.5795 55.0941 40.8793 54.9237 41.1435C54.7532 41.4077 54.5089 41.6165 54.1907 41.7699C53.8725 41.9233 53.4918 42 53.0487 42H49.9634ZM50.918 41.0795H53.0487C53.3952 41.0795 53.6665 40.9972 53.8626 40.8324C54.0586 40.6676 54.1566 40.4432 54.1566 40.1591C54.1566 39.821 54.0586 39.5554 53.8626 39.3622C53.6665 39.1662 53.3952 39.0682 53.0487 39.0682H50.918V41.0795ZM50.918 38.1989H52.6396C52.9094 38.1989 53.141 38.1619 53.3342 38.0881C53.5273 38.0114 53.6751 37.9034 53.7773 37.7642C53.8825 37.6222 53.935 37.4545 53.935 37.2614C53.935 36.9858 53.82 36.7699 53.5898 36.6136C53.3597 36.4545 53.043 36.375 52.6396 36.375H50.918V38.1989ZM59.446 42.1364C58.8153 42.1364 58.2713 41.9972 57.8139 41.7188C57.3594 41.4375 57.0085 41.0455 56.7614 40.5426C56.517 40.0369 56.3949 39.4489 56.3949 38.7784C56.3949 38.108 56.517 37.517 56.7614 37.0057C57.0085 36.4915 57.3523 36.0909 57.7926 35.804C58.2358 35.5142 58.7528 35.3693 59.3438 35.3693C59.6847 35.3693 60.0213 35.4261 60.3537 35.5398C60.6861 35.6534 60.9886 35.8381 61.2614 36.0938C61.5341 36.3466 61.7514 36.6818 61.9134 37.0994C62.0753 37.517 62.1562 38.0312 62.1562 38.642V39.0682H57.1108V38.1989H61.1335C61.1335 37.8295 61.0597 37.5 60.9119 37.2102C60.767 36.9205 60.5597 36.6918 60.2898 36.5241C60.0227 36.3565 59.7074 36.2727 59.3438 36.2727C58.9432 36.2727 58.5966 36.3722 58.304 36.571C58.0142 36.767 57.7912 37.0227 57.6349 37.3381C57.4787 37.6534 57.4006 37.9915 57.4006 38.3523V38.9318C57.4006 39.4261 57.4858 39.8452 57.6562 40.1889C57.8295 40.5298 58.0696 40.7898 58.3764 40.9688C58.6832 41.1449 59.0398 41.233 59.446 41.233C59.7102 41.233 59.9489 41.196 60.1619 41.1222C60.3778 41.0455 60.5639 40.9318 60.7202 40.7812C60.8764 40.6278 60.9972 40.4375 61.0824 40.2102L62.054 40.483C61.9517 40.8125 61.7798 41.1023 61.5384 41.3523C61.2969 41.5994 60.9986 41.7926 60.6435 41.9318C60.2884 42.0682 59.8892 42.1364 59.446 42.1364ZM68.0668 38.267V39.2045H64.4531V38.267H68.0668ZM64.6918 35.4545V42H63.6861V35.4545H64.6918ZM68.8338 35.4545V42H67.8281V35.4545H68.8338ZM75.0511 38.267V39.2045H71.4375V38.267H75.0511ZM71.6761 35.4545V42H70.6705V35.4545H71.6761ZM75.8182 35.4545V42H74.8125V35.4545H75.8182ZM78.5241 37.8239H80.3991C81.1662 37.8239 81.7528 38.0185 82.1591 38.4077C82.5653 38.7969 82.7685 39.2898 82.7685 39.8864C82.7685 40.2784 82.6776 40.6349 82.4957 40.956C82.3139 41.2741 82.0469 41.5284 81.6946 41.7188C81.3423 41.9062 80.9105 42 80.3991 42H77.6548V35.4545H78.6605V41.0625H80.3991C80.7969 41.0625 81.1236 40.9574 81.3793 40.7472C81.6349 40.5369 81.7628 40.267 81.7628 39.9375C81.7628 39.5909 81.6349 39.3082 81.3793 39.0895C81.1236 38.8707 80.7969 38.7614 80.3991 38.7614H78.5241V37.8239ZM83.8082 42V35.4545H84.8139V42H83.8082ZM87.6605 40.517L90.8139 35.4545H91.973V42H90.9673V36.9375L87.831 42H86.6548V35.4545H87.6605V40.517ZM90.1491 33.2727H91.0866C91.0866 33.733 90.9276 34.1094 90.6094 34.402C90.2912 34.6946 89.8594 34.8409 89.3139 34.8409C88.777 34.8409 88.3494 34.6946 88.0312 34.402C87.7159 34.1094 87.5582 33.733 87.5582 33.2727H88.4957C88.4957 33.4943 88.5568 33.6889 88.679 33.8565C88.804 34.0241 89.0156 34.108 89.3139 34.108C89.6122 34.108 89.8253 34.0241 89.9531 33.8565C90.0838 33.6889 90.1491 33.4943 90.1491 33.2727ZM100.77 40.6364L103.054 35.4545H104.008L101.179 42H100.36L97.582 35.4545H98.5195L100.77 40.6364ZM98.1957 35.4545V42H97.19V35.4545H98.1957ZM103.343 42V35.4545H104.349V42H103.343ZM108.116 42.1534C107.701 42.1534 107.325 42.0753 106.987 41.919C106.649 41.7599 106.38 41.5312 106.181 41.233C105.983 40.9318 105.883 40.5682 105.883 40.142C105.883 39.767 105.957 39.4631 106.105 39.2301C106.252 38.9943 106.45 38.8097 106.697 38.6761C106.944 38.5426 107.217 38.4432 107.515 38.3778C107.816 38.3097 108.119 38.2557 108.423 38.2159C108.821 38.1648 109.143 38.1264 109.39 38.1009C109.64 38.0724 109.822 38.0256 109.936 37.9602C110.052 37.8949 110.11 37.7812 110.11 37.6193V37.5852C110.11 37.1648 109.995 36.8381 109.765 36.6051C109.538 36.3722 109.193 36.2557 108.73 36.2557C108.25 36.2557 107.873 36.3608 107.6 36.571C107.328 36.7812 107.136 37.0057 107.025 37.2443L106.071 36.9034C106.241 36.5057 106.468 36.196 106.752 35.9744C107.039 35.75 107.352 35.5937 107.69 35.5057C108.031 35.4148 108.366 35.3693 108.696 35.3693C108.906 35.3693 109.147 35.3949 109.42 35.446C109.696 35.4943 109.961 35.5952 110.217 35.7486C110.475 35.902 110.69 36.1335 110.86 36.4432C111.031 36.7528 111.116 37.1676 111.116 37.6875V42H110.11V41.1136H110.059C109.991 41.2557 109.877 41.4077 109.718 41.5696C109.559 41.7315 109.348 41.8693 109.083 41.983C108.819 42.0966 108.497 42.1534 108.116 42.1534ZM108.27 41.25C108.667 41.25 109.002 41.1719 109.275 41.0156C109.551 40.8594 109.758 40.6577 109.897 40.4105C110.039 40.1634 110.11 39.9034 110.11 39.6307V38.7102C110.068 38.7614 109.974 38.8082 109.829 38.8509C109.687 38.8906 109.522 38.9261 109.335 38.9574C109.15 38.9858 108.97 39.0114 108.794 39.0341C108.62 39.054 108.48 39.071 108.372 39.0852C108.11 39.1193 107.866 39.1747 107.639 39.2514C107.414 39.3253 107.233 39.4375 107.093 39.5881C106.957 39.7358 106.889 39.9375 106.889 40.1932C106.889 40.5426 107.018 40.8068 107.277 40.9858C107.538 41.1619 107.869 41.25 108.27 41.25ZM116.991 35.4545V36.392H113.957V42H112.952V35.4545H116.991ZM120.046 42.1534C119.631 42.1534 119.255 42.0753 118.917 41.919C118.578 41.7599 118.31 41.5312 118.111 41.233C117.912 40.9318 117.813 40.5682 117.813 40.142C117.813 39.767 117.887 39.4631 118.034 39.2301C118.182 38.9943 118.38 38.8097 118.627 38.6761C118.874 38.5426 119.147 38.4432 119.445 38.3778C119.746 38.3097 120.049 38.2557 120.353 38.2159C120.75 38.1648 121.073 38.1264 121.32 38.1009C121.57 38.0724 121.752 38.0256 121.865 37.9602C121.982 37.8949 122.04 37.7812 122.04 37.6193V37.5852C122.04 37.1648 121.925 36.8381 121.695 36.6051C121.468 36.3722 121.123 36.2557 120.659 36.2557C120.179 36.2557 119.803 36.3608 119.53 36.571C119.257 36.7812 119.066 37.0057 118.955 37.2443L118 36.9034C118.171 36.5057 118.398 36.196 118.682 35.9744C118.969 35.75 119.282 35.5937 119.62 35.5057C119.961 35.4148 120.296 35.3693 120.625 35.3693C120.836 35.3693 121.077 35.3949 121.35 35.446C121.625 35.4943 121.891 35.5952 122.147 35.7486C122.405 35.902 122.62 36.1335 122.79 36.4432C122.961 36.7528 123.046 37.1676 123.046 37.6875V42H122.04V41.1136H121.989C121.921 41.2557 121.807 41.4077 121.648 41.5696C121.489 41.7315 121.277 41.8693 121.013 41.983C120.749 42.0966 120.426 42.1534 120.046 42.1534ZM120.199 41.25C120.597 41.25 120.932 41.1719 121.205 41.0156C121.48 40.8594 121.688 40.6577 121.827 40.4105C121.969 40.1634 122.04 39.9034 122.04 39.6307V38.7102C121.998 38.7614 121.904 38.8082 121.759 38.8509C121.617 38.8906 121.452 38.9261 121.265 38.9574C121.08 38.9858 120.9 39.0114 120.723 39.0341C120.55 39.054 120.409 39.071 120.301 39.0852C120.04 39.1193 119.796 39.1747 119.569 39.2514C119.344 39.3253 119.162 39.4375 119.023 39.5881C118.887 39.7358 118.819 39.9375 118.819 40.1932C118.819 40.5426 118.948 40.8068 119.206 40.9858C119.468 41.1619 119.799 41.25 120.199 41.25ZM124.472 40.3295H125.546C125.569 40.625 125.702 40.8494 125.947 41.0028C126.194 41.1562 126.515 41.233 126.91 41.233C127.313 41.233 127.658 41.1506 127.945 40.9858C128.232 40.8182 128.376 40.5483 128.376 40.1761C128.376 39.9574 128.322 39.767 128.214 39.6051C128.106 39.4403 127.954 39.3125 127.758 39.2216C127.562 39.1307 127.33 39.0852 127.063 39.0852H125.938V38.1818H127.063C127.464 38.1818 127.759 38.0909 127.95 37.9091C128.143 37.7273 128.239 37.5 128.239 37.2273C128.239 36.9347 128.136 36.7003 127.928 36.5241C127.721 36.3452 127.427 36.2557 127.046 36.2557C126.663 36.2557 126.343 36.3423 126.087 36.5156C125.832 36.6861 125.697 36.9062 125.683 37.1761H124.626C124.637 36.8239 124.745 36.5128 124.95 36.2429C125.154 35.9702 125.433 35.7571 125.785 35.6037C126.137 35.4474 126.54 35.3693 126.995 35.3693C127.455 35.3693 127.854 35.4503 128.192 35.6122C128.533 35.7713 128.796 35.9886 128.981 36.2642C129.168 36.5369 129.262 36.8466 129.262 37.1932C129.262 37.5625 129.158 37.8608 128.951 38.0881C128.744 38.3153 128.484 38.4773 128.171 38.5739V38.642C128.418 38.6591 128.633 38.7386 128.815 38.8807C128.999 39.0199 129.143 39.2031 129.245 39.4304C129.347 39.6548 129.398 39.9034 129.398 40.1761C129.398 40.5739 129.292 40.9205 129.079 41.2159C128.866 41.5085 128.573 41.7358 128.201 41.8977C127.829 42.0568 127.404 42.1364 126.927 42.1364C126.464 42.1364 126.049 42.0611 125.683 41.9105C125.316 41.7571 125.025 41.5455 124.809 41.2756C124.596 41.0028 124.484 40.6875 124.472 40.3295ZM131.817 40.517L134.97 35.4545H136.129V42H135.124V36.9375L131.987 42H130.811V35.4545H131.817V40.517ZM142.352 38.267V39.2045H138.738V38.267H142.352ZM138.977 35.4545V42H137.971V35.4545H138.977ZM143.119 35.4545V42H142.113V35.4545H143.119ZM147.956 36.392V35.4545H153.274V36.392H151.126V42H150.12V36.392H147.956ZM157.145 42.1364C156.515 42.1364 155.971 41.9972 155.513 41.7188C155.059 41.4375 154.708 41.0455 154.461 40.5426C154.216 40.0369 154.094 39.4489 154.094 38.7784C154.094 38.108 154.216 37.517 154.461 37.0057C154.708 36.4915 155.051 36.0909 155.492 35.804C155.935 35.5142 156.452 35.3693 157.043 35.3693C157.384 35.3693 157.721 35.4261 158.053 35.5398C158.385 35.6534 158.688 35.8381 158.961 36.0938C159.233 36.3466 159.451 36.6818 159.613 37.0994C159.775 37.517 159.855 38.0312 159.855 38.642V39.0682H154.81V38.1989H158.833C158.833 37.8295 158.759 37.5 158.611 37.2102C158.466 36.9205 158.259 36.6918 157.989 36.5241C157.722 36.3565 157.407 36.2727 157.043 36.2727C156.642 36.2727 156.296 36.3722 156.003 36.571C155.713 36.767 155.49 37.0227 155.334 37.3381C155.178 37.6534 155.1 37.9915 155.1 38.3523V38.9318C155.1 39.4261 155.185 39.8452 155.355 40.1889C155.529 40.5298 155.769 40.7898 156.076 40.9688C156.382 41.1449 156.739 41.233 157.145 41.233C157.409 41.233 157.648 41.196 157.861 41.1222C158.077 41.0455 158.263 40.9318 158.419 40.7812C158.576 40.6278 158.696 40.4375 158.782 40.2102L159.753 40.483C159.651 40.8125 159.479 41.1023 159.238 41.3523C158.996 41.5994 158.698 41.7926 158.343 41.9318C157.988 42.0682 157.588 42.1364 157.145 42.1364ZM161.96 35.4545L163.528 38.1307L165.096 35.4545H166.255L164.141 38.7273L166.255 42H165.096L163.528 39.4602L161.96 42H160.8L162.88 38.7273L160.8 35.4545H161.96ZM172.071 38.267V39.2045H168.457V38.267H172.071ZM168.696 35.4545V42H167.69V35.4545H168.696ZM172.838 35.4545V42H171.832V35.4545H172.838ZM175.68 40.517L178.833 35.4545H179.993V42H178.987V36.9375L175.85 42H174.674V35.4545H175.68V40.517ZM181.835 42V35.4545H182.84V38.3011H183.505L185.857 35.4545H187.153L184.511 38.608L187.187 42H185.891L183.744 39.2386H182.84V42H181.835ZM189.286 40.517L192.439 35.4545H193.598V42H192.592V36.9375L189.456 42H188.28V35.4545H189.286V40.517Z" fill="black"/>
</svg>
