<svg width="24" height="24" viewBox="0 0 24 24" fill="none" xmlns="http://www.w3.org/2000/svg">
<g clip-path="url(#clip0_15_13378)">
<path d="M23.384 21.6191L16.855 15.0901C18.2801 13.2167 18.9405 10.8719 18.7024 8.53019C18.4644 6.18844 17.3457 4.02453 15.5728 2.47624C13.7999 0.927952 11.5051 0.110889 9.15258 0.190356C6.8001 0.269822 4.56563 1.23988 2.90123 2.90428C1.23683 4.56868 0.266771 6.80315 0.187304 9.15563C0.107838 11.5081 0.9249 13.8029 2.47319 15.5759C4.02147 17.3488 6.18539 18.4674 8.52714 18.7055C10.8689 18.9435 13.2136 18.2832 15.087 16.8581L21.616 23.3871C21.8525 23.6177 22.1697 23.7468 22.5 23.7468C22.8303 23.7468 23.1475 23.6177 23.384 23.3871C23.6182 23.1525 23.7498 22.8345 23.7498 22.5031C23.7498 22.1716 23.6182 21.8536 23.384 21.6191V21.6191ZM2.75 9.50005C2.75 8.16503 3.14588 6.85998 3.88758 5.74995C4.62928 4.63992 5.68349 3.77476 6.91689 3.26386C8.15029 2.75297 9.50749 2.6193 10.8169 2.87975C12.1262 3.1402 13.329 3.78308 14.273 4.72708C15.217 5.67109 15.8599 6.87382 16.1203 8.18319C16.3808 9.49256 16.2471 10.8498 15.7362 12.0832C15.2253 13.3166 14.3601 14.3708 13.2501 15.1125C12.1401 15.8542 10.835 16.2501 9.5 16.2501C7.71044 16.2479 5.99478 15.5361 4.72937 14.2707C3.46396 13.0053 2.75212 11.2896 2.75 9.50005V9.50005Z" fill="black"/>
</g>
<defs>
<clipPath id="clip0_15_13378">
<rect width="24" height="24" fill="white"/>
</clipPath>
</defs>
</svg>
